HIERARCHY
ROOT Hips
{
  OFFSET 0.000000 0.000000 0.000000
  CHANNELS 6 Xposition Yposition Zposition Xrotation Yrotation Zrotation
  JOINT Spine
  {
    OFFSET -0.098318 21.401485 -6.293631
    CHANNELS 3 Xrotation Yrotation Zrotation
    JOINT Chest
    {
      OFFSET -0.098318 21.401485 -6.293631
      CHANNELS 3 Xrotation Yrotation Zrotation
      JOINT Neck
      {
        OFFSET -0.580468 8.207782 -4.253018
        CHANNELS 3 Xrotation Yrotation Zrotation
        JOINT Head
        {
          OFFSET -0.562899 7.168579 -8.345224
          CHANNELS 3 Xrotation Yrotation Zrotation
          End Site
          {
            OFFSET -0.168870 2.150574 -2.503567
          }
        }
      }
      JOINT LeftShoulder
      {
        OFFSET 15.962312 -1.224650 -0.671920
        CHANNELS 3 Xrotation Yrotation Zrotation
        JOINT LeftArm
        {
          OFFSET 3.898732 -20.606852 -14.288570
          CHANNELS 3 Xrotation Yrotation Zrotation
          JOINT LeftForeArm
          {
            OFFSET -12.342943 8.950010 -19.437981
            CHANNELS 3 Xrotation Yrotation Zrotation
            JOINT LeftHand
            {
              OFFSET -3.038787 2.639320 -1.974434
              CHANNELS 3 Xrotation Yrotation Zrotation
              End Site
              {
                OFFSET -0.911636 0.791796 -0.592330
              }
            }
          }
        }
      }
      JOINT RightShoulder
      {
        OFFSET -15.962312 1.224650 0.671920
        CHANNELS 3 Xrotation Yrotation Zrotation
        JOINT RightArm
        {
          OFFSET -4.099335 -19.443265 -13.234083
          CHANNELS 3 Xrotation Yrotation Zrotation
          JOINT RightForeArm
          {
            OFFSET 9.166595 9.388715 -23.176992
            CHANNELS 3 Xrotation Yrotation Zrotation
            JOINT RightHand
            {
              OFFSET 2.860103 2.623748 -2.679938
              CHANNELS 3 Xrotation Yrotation Zrotation
              End Site
              {
                OFFSET 0.858031 0.787124 -0.803981
              }
            }
          }
        }
      }
    }
  }
  JOINT LeftUpLeg
  {
    OFFSET 11.237313 0.048304 -1.496415
    CHANNELS 3 Xrotation Yrotation Zrotation
    JOINT LeftLeg
    {
      OFFSET 7.821200 -40.343860 -7.802128
      CHANNELS 3 Xrotation Yrotation Zrotation
      JOINT LeftFoot
      {
        OFFSET 17.362362 -39.315871 4.251217
        CHANNELS 3 Xrotation Yrotation Zrotation
        End Site
        {
          OFFSET 5.208708 -11.794761 1.275365
        }
      }
    }
  }
  JOINT RightUpLeg
  {
    OFFSET -11.237313 -0.048304 1.496415
    CHANNELS 3 Xrotation Yrotation Zrotation
    JOINT RightLeg
    {
      OFFSET -9.078132 -36.758209 -0.218620
      CHANNELS 3 Xrotation Yrotation Zrotation
      JOINT RightFoot
      {
        OFFSET -1.443762 -37.160986 11.934157
        CHANNELS 3 Xrotation Yrotation Zrotation
        End Site
        {
          OFFSET -0.433129 -11.148296 3.580247
        }
      }
    }
  }
}
MOTION
Frames: 8
Frame Time: 0.083333
0.000000 60.000000 0.000000 -0.183306 -0.000414 0.001282 -0.183306 -0.000414 0.001282 -0.031876 -0.076198 -0.140972 -0.031530 -0.230413 -0.193611 5.000000 0.000000 0.000000 0.034486 0.032223 -0.037004 -0.077847 -0.054013 -0.014856 0.000000 0.000000 0.000000 0.000000 0.000000 0.000000 0.300721 0.019322 -0.120520 -0.005794 -0.087360 -0.035946 -1.701013 -28.947447 -62.655713 0.000000 0.000000 0.000000 0.505675 0.082826 0.075335 0.424396 0.188991 0.017563 0.000000 0.000000 0.000000 9.476805 -1.828299 -5.471570 -11.158702 3.016877 5.933003 0.000000 0.000000 0.000000
0.000147 60.000000 -0.036194 -0.193357 -0.000546 0.001006 -0.193357 -0.000546 0.001006 -0.037938 -0.080546 -0.147944 -0.040680 -0.241549 -0.201660 5.000000 0.000000 0.000000 0.073717 0.140084 -0.179421 0.161761 -0.097892 -0.066410 0.000000 0.000000 0.000000 0.000000 0.000000 0.000000 0.253413 -0.033452 -0.029358 0.081090 -0.121720 -0.043881 -14.630160 -29.574217 -59.184937 0.000000 0.000000 0.000000 0.522759 0.086552 0.073540 0.422438 0.187928 0.015697 0.000000 0.000000 0.000000 9.456704 -1.825758 -5.449921 -11.177542 3.009921 5.913756 0.000000 0.000000 0.000000
0.000384 60.000000 -0.184418 -0.194434 -0.000558 0.000987 -0.194434 -0.000558 0.000987 -0.038381 -0.080733 -0.148194 -0.041248 -0.241968 -0.201918 5.000000 0.000000 0.000000 0.366892 0.731102 -0.936714 1.366438 -0.409759 -0.369993 0.000000 0.000000 0.000000 0.000000 0.000000 0.000000 0.572905 -0.263540 0.206652 0.558996 -0.464846 -0.150971 -43.691392 -28.092739 -49.010650 0.000000 0.000000 0.000000 0.523625 0.086751 0.073414 0.422138 0.187752 0.015334 0.000000 0.000000 0.000000 9.456173 -1.825691 -5.449372 -11.178189 3.009588 5.912901 0.000000 0.000000 0.000000
0.000533 60.000000 -0.445510 -0.712871 0.001708 0.016364 -0.712871 0.001708 0.016364 -0.205361 -0.298229 -0.531187 -0.256974 -0.854399 -0.693993 5.000000 0.000000 0.000000 1.056172 1.811453 -2.263567 4.293462 -0.928811 -1.002140 0.000000 0.000000 0.000000 0.000000 0.000000 0.000000 0.494263 -0.847398 1.078863 1.686689 -0.948247 -0.272294 0.000000 0.000000 0.000000 0.000000 0.000000 0.000000 1.566115 0.274076 0.149550 0.843461 0.374414 0.026708 0.000000 0.000000 0.000000 8.068183 -1.701254 -3.564558 -12.242010 2.501573 4.537299 0.000000 0.000000 0.000000
0.000476 60.000000 -0.775732 -1.731961 -0.001290 0.023850 -1.731961 -0.001290 0.023850 -0.703446 -0.635437 -1.062098 -0.955165 -1.696998 -1.299272 5.000000 0.000000 0.000000 2.034809 2.312996 -2.655196 6.492525 -1.329786 -1.494546 -13.746127 21.142378 58.625506 0.000000 0.000000 0.000000 0.368257 -1.605361 2.217930 2.715881 -1.127930 -0.276804 0.000000 0.000000 0.000000 0.000000 0.000000 0.000000 2.731466 0.535512 -0.003742 0.324061 0.119972 -0.185479 0.000000 0.000000 0.000000 6.802431 -1.524244 -2.293884 -13.739022 2.031445 3.207389 0.000000 0.000000 0.000000
0.000371 60.000000 -1.025853 -3.674098 -0.044652 -0.079971 -3.674098 -0.044652 -0.079971 -1.635231 -0.922593 -1.369497 -2.213194 -2.225487 -1.519520 5.000000 0.000000 0.000000 3.187432 2.609571 -2.695212 7.117828 -1.832095 -1.820831 -15.527260 20.787467 57.277915 0.000000 0.000000 0.000000 0.282819 -3.031969 4.305657 3.506475 -0.960845 -0.144746 0.000000 0.000000 0.000000 0.000000 0.000000 0.000000 4.097394 0.898727 -0.410499 -0.467757 -0.348572 -1.169349 0.000000 0.000000 0.000000 6.625236 -1.474873 -2.397730 -14.239884 1.615080 2.227075 0.000000 0.000000 0.000000
0.000272 60.000000 -1.082032 -6.710446 -0.107313 -0.206502 -6.710446 -0.107313 -0.206502 -2.684421 -1.241054 -1.662461 -3.435075 -2.688386 -1.652810 5.000000 0.000000 0.000000 3.755099 2.844989 -2.831258 8.058638 -2.026927 -2.049591 -22.137861 20.483532 55.585923 0.000000 0.000000 0.000000 0.284819 -4.512167 6.419882 4.438559 -0.742705 0.022167 0.000000 0.000000 0.000000 0.000000 0.000000 0.000000 5.586479 1.293919 -0.802812 -1.349213 -0.962999 -2.929239 0.000000 0.000000 0.000000 7.566263 -1.624913 -3.182469 -14.131793 1.120546 1.171861 0.000000 0.000000 0.000000
0.000200 60.000000 -0.879854 -8.104712 -0.239195 -0.535247 -8.104712 -0.239195 -0.535247 -3.226817 -1.555364 -2.028095 -4.123418 -3.114761 -1.823167 5.000000 0.000000 0.000000 3.624933 3.002019 -3.081919 8.542106 -2.279936 -2.238221 -27.980229 20.309257 54.609265 0.000000 0.000000 0.000000 0.654522 -4.947782 6.884369 5.127112 -0.842010 0.026536 -3.343591 -28.504555 -60.530154 0.000000 0.000000 0.000000 6.356813 1.537329 -1.141625 -1.588650 -1.252716 -4.329305 0.000000 0.000000 0.000000 9.026957 -1.881741 -3.963264 -13.407839 0.819680 0.602260 0.000000 0.000000 0.000000
